<?xml version="1.0" encoding="utf-8"?>
<svg xmlns="http://www.w3.org/2000/svg" viewBox="0 0 500 500" xmlns:bx="https://boxy-svg.com" width="200" height="200" class="w-full"><defs><radialGradient gradientUnits="userSpaceOnUse" cx="88.608" cy="83.006" r="85.197" id="gradient-0" spreadMethod="pad" gradientTransform="matrix(2.196184, 0, 0, 2.196184, -85.1745, -4.482824)"><stop offset="0" style="stop-color: rgb(19.608% 88.235% 98.824%)"/><stop offset="1" style="stop-color: rgb(0% 51.702% 59.738%)"/></radialGradient><bx:export><bx:file format="svg" path="Sin título.svg"/></bx:export></defs><g transform="matrix(1, 0, 0, 1, 130.109087, 69.872079)"><path d="M 263.186 109.576 L 223.716 58.337 L 288.793 14.843 L 263.186 109.576 Z M 255.42 138.104 L 228.491 103.148 L 235.494 162.55 L 255.42 138.104 Z M 184.745 37.75 L 129.113 110.283 L 202.723 61.086 L 184.745 37.75 Z M 201.526 75.816 L 115.552 133.275 L 212.61 169.876 L 201.526 75.816 Z M 115.356 168.387 L 115.356 245.447 L 169.791 232.463 L 115.356 168.387 Z M 94.671 242.162 L 94.671 158.522 L 35.582 228.067 L 94.671 242.162 Z M 19.401 43.203 L 8.233 57.704 L 53.971 88.273 L 19.401 43.203 Z M 5.49 87.761 L -5.392 180.102 L 89.894 144.17 L 5.49 87.761 Z M -16.221 88.71 L -46.16 127.58 L -24.002 154.756 L -16.221 88.71 Z M -17.475 69.97 L -72.901 31.251 L -50.102 115.585 L -17.475 69.97 Z M -61.698 145.169 L -61.814 144.746 L -77.684 86.024 L -68.484 177.783 L -59.831 147.418 L -61.698 145.169 Z M -56.363 157.784 L -68.205 199.349 L -33.237 186.163 L -56.363 157.784 Z M -29.675 191.992 L -30.969 190.402 L -32.425 190.951 L -61.783 202.022 L -10.36 215.684 L -29.675 191.992 Z M -5.177 179.737 L 26.163 218.188 L 89.011 144.216 L -5.177 179.737 Z M -21.33 340.784 L 22.596 331.656 L -23.737 297.508 L -21.33 340.784 Z M -24.945 263.952 L 23.927 299.97 L 11.589 239.744 L -24.945 263.952 Z M 48.77 309.288 L 91.418 257.346 L 91.976 256.639 L 35.215 243.106 L 48.77 309.288 Z M 157.312 301.369 L 170.571 236.667 L 115.062 249.905 L 157.312 301.369 Z M 228.603 335.743 L 231.466 284.249 L 176.338 324.883 L 228.603 335.743 Z M 176.533 305.436 L 233.384 263.533 L 190.89 235.375 L 176.533 305.436 Z M 166.141 218.034 L 193.964 183.899 L 110.351 152.366 L 166.141 218.034 Z M 173.25 227.805 L 245.351 208.652 L 202.15 192.357 L 173.25 227.805 Z M 213.937 179.12 L 245.869 191.164 L 235.059 153.212 L 213.937 179.12 Z M 252.398 127.053 L 252.288 127.459 L 252.899 129.598 L 264.469 170.204 L 296.533 49.941 L 252.398 127.053 Z" style="fill-rule: nonzero; paint-order: fill; fill: url(&quot;#gradient-0&quot;);"/><path d="M 311.452 -1.975 L 307.96 0.36 L 223.558 56.766 L 222.565 55.477 L 198.179 23.817 L 196.435 21.553 L 194.696 23.821 L 179.854 43.17 L 114.996 127.734 L 113.782 126.15 L 35.327 23.865 L 33.588 21.597 L 31.844 23.861 L 16.965 43.181 L 7.46 55.521 L 6.467 56.808 L 4.3 55.361 L -77.934 0.401 L -81.424 -1.929 L -85.175 -4.437 L -84.835 0.063 L -84.797 0.544 L -82.829 27.551 L -78.222 90.634 L -77.133 105.607 L -73.061 161.382 L -72.453 169.672 L -70.136 201.431 L -70.056 202.525 L -69.973 203.636 L -69.854 205.189 L -68.346 205.593 L -67.368 205.85 L -67.131 205.911 L -65.967 206.226 L -65.466 206.359 L -60.727 207.616 L -1.643 223.314 L 3.057 224.557 L 16.319 228.082 L 23.982 230.12 L 25.493 230.52 L 20.637 233.737 L -24.997 263.979 L -26.699 265.107 L -27.751 265.801 L -27.679 267.062 L -27.611 268.277 L -27.547 269.421 L -26.425 289.547 L -26.225 293.241 L -23.502 342.178 L -23.361 344.726 L -20.864 344.207 L 28.809 333.883 L 32.56 333.103 L 33.531 332.901 L 36.325 332.322 L 39.16 331.729 L 52.737 328.911 L 54.151 328.619 L 54.487 328.546 L 55.262 328.384 L 55.754 327.762 L 56.628 326.651 L 57.368 325.716 L 105.228 267.4 L 112.236 258.859 L 115.027 255.457 L 116.345 257.061 L 160.949 311.412 L 163.279 314.251 L 171.502 324.268 L 172.675 325.696 L 173.272 326.451 L 173.402 326.614 L 174.262 327.712 L 174.763 328.347 L 175.558 328.509 L 175.879 328.573 L 177.278 328.865 L 231.054 340.035 L 250.883 344.157 L 253.38 344.675 L 253.521 342.128 L 257.63 268.222 L 257.698 267.012 L 257.77 265.751 L 256.718 265.057 L 255.016 263.928 L 204.524 230.476 L 213.702 228.04 L 269.856 213.122 L 274.595 211.865 L 276.565 211.343 L 295.984 206.177 L 297.146 205.868 L 297.381 205.808 L 298.371 205.547 L 299.884 205.143 L 299.996 203.581 L 300.077 202.479 L 300.154 201.381 L 314.816 0.491 L 314.856 0.013 L 315.2 -4.483 L 311.452 -1.975 Z M 232.106 332.858 L 184.657 323.001 L 235.83 285.288 L 250.011 274.83 L 246.616 335.873 L 232.106 332.858 Z M 120.55 250.758 L 173.474 238.134 L 176.584 237.392 L 181.839 236.14 L 186.407 235.055 L 191.612 233.812 L 188.406 249.46 L 174.64 316.641 L 167.417 307.847 L 165.087 305.008 L 122.837 253.56 L 120.829 251.111 L 120.55 251.452 L 120.55 250.758 Z M 217.521 60.799 L 131.222 118.475 L 185.14 48.177 L 196.448 33.441 L 217.521 60.799 Z M 291.115 20.329 L 304.404 11.448 L 284.381 85.501 L 274.336 122.68 L 268.213 114.735 L 266.026 111.893 L 227.992 62.516 L 291.115 20.329 Z M 198.699 235.307 L 247.529 267.662 L 182.204 315.806 L 195.269 252.04 L 198.699 235.307 Z M 261.609 118.036 L 263.797 120.875 L 271.52 130.899 L 259.542 145.593 L 257.344 148.292 L 239.298 170.43 L 239.237 169.898 L 238.773 165.956 L 231.772 106.549 L 231.119 101.033 L 227.979 74.373 L 261.609 118.036 Z M 187.951 225.249 L 189.355 226.9 L 188.355 227.14 L 183.787 228.229 L 173.494 230.682 L 170.375 231.429 L 118.648 243.765 L 118.648 169.486 L 118.648 165.08 L 118.648 153.361 L 118.648 150.311 L 118.648 143.678 L 130.539 157.674 L 134.349 162.157 L 187.951 227.225 L 187.951 225.249 Z M 195.005 222.365 L 193.132 220.16 L 143.206 161.397 L 139.396 156.91 L 126.781 142.06 L 214.683 175.209 L 217.685 176.346 L 226.516 179.676 L 229.334 180.739 L 230.531 181.189 L 223.42 189.906 L 221.522 192.24 L 196.005 223.54 L 195.005 222.365 Z M 231.901 169.547 L 232.367 173.489 L 232.446 174.168 L 229.966 173.232 L 218.86 169.046 L 215.856 167.913 L 122.795 132.818 L 205.215 77.736 L 208.775 75.357 L 219.921 67.908 L 223.365 97.145 L 224.017 102.664 L 231.901 169.547 Z M 227.74 196.073 L 229.639 193.742 L 237.383 184.246 L 237.679 183.882 L 271.004 196.45 L 274.325 197.702 L 277.641 198.95 L 284.805 201.655 L 274.659 204.35 L 268.881 205.885 L 264.139 207.146 L 206.162 222.55 L 227.74 196.073 Z M 279.409 191.873 L 274.905 190.18 L 271.582 188.928 L 242.507 177.961 L 261.701 154.415 L 263.898 151.716 L 274.518 138.693 L 279.356 155.667 L 290.904 196.211 L 281.605 191.873 L 279.409 191.873 Z M 279.721 130.512 L 287.528 101.628 L 304.863 37.515 L 294.332 181.791 L 284.188 146.171 L 279.791 130.734 L 279.721 130.512 Z M -0.503 181.231 L 93.952 145.611 L 103.244 142.106 L 101.676 143.951 L 97.982 148.297 L 96.974 149.485 L 94.091 152.878 L 34.019 223.589 L 33.3 222.71 L 31.469 220.463 L 0.129 182.013 L -0.503 181.231 Z M 104.892 133.743 L 89.485 139.552 L -2.421 174.21 L 8.04 85.457 L 8.413 82.277 L 10.104 67.954 L 59.246 100.798 L 107.231 132.866 L 104.892 133.633 L 104.892 133.743 Z M -12.62 93.454 L -9.229 89.055 L -2.23 79.971 L -0.486 77.707 L 2.044 74.419 L 1.388 79.984 L 1.014 83.165 L -9.231 170.474 L -17.886 159.853 L -20.392 156.778 L -41.451 130.947 L -12.62 93.454 Z M -6.341 73.438 L -8.085 75.702 L -12.055 80.856 L -15.446 85.257 L -44.311 122.724 L -44.675 121.369 L -45.611 117.908 L -68.407 33.575 L -74.376 11.492 L 0.118 61.277 L 2.038 62.558 L -6.341 73.438 Z M -52.039 121.892 L -51.106 125.353 L -49.696 130.556 L -49.759 130.78 L -55.702 151.648 L -56.658 154.993 L -64.305 181.839 L -65.802 161.362 L -66.406 153.071 L -68.833 119.775 L -69.927 104.801 L -74.833 37.565 L -52.039 121.892 Z M -50.234 158.891 L -49.283 155.546 L -44.491 138.737 L -24.308 163.494 L -21.802 166.569 L -12.477 178.005 L -23.098 182.01 L -26.1 183.139 L -27.18 183.548 L -29.994 184.611 L -60.879 196.257 L -50.234 159.067 L -50.234 158.891 Z M -26.543 191.05 L -21.923 189.308 L -7.654 183.925 L -7.362 184.286 L -6.09 185.847 L 23.861 222.589 L 1.12 216.55 L -3.58 215.302 L -54.778 201.701 L -26.543 191.05 Z M 33.606 246.473 L 47.824 315.859 L 32.268 304.393 L 28.838 301.863 L -17.506 267.706 L 16.407 245.239 L 22.181 241.413 L 31.324 235.351 L 32.975 243.398 L 33.606 246.473 Z M -16.59 335.921 L -18.855 295.189 L -19.063 291.499 L -19.986 274.878 L 27.087 309.571 L 30.518 312.097 L 44.661 322.524 L 45.368 323.043 L 41.154 323.917 L 34.864 325.226 L 32.073 325.806 L 28.585 326.53 L 24.838 327.314 L -18.787 338.117 L -16.59 335.921 Z M 95.257 247.413 L 98.141 248.1 L 109.475 250.801 L 107.235 253.529 L 104.248 257.166 L 99.985 262.36 L 55.385 316.687 L 54.526 312.505 L 40.972 246.323 L 40.339 243.244 L 38.417 233.856 L 95.257 247.413 Z M 40.673 226.942 L 97.442 160.125 L 100.324 156.737 L 103.207 153.344 L 105.08 151.143 L 105.906 150.17 L 107.867 147.858 L 111.381 143.727 L 111.381 149.221 L 111.381 152.272 L 111.381 161.687 L 111.381 166.097 L 111.381 243.809 L 99.164 240.901 L 96.287 240.211 L 40.673 226.955 L 40.673 226.942 Z M 33.575 33.485 L 98.799 118.517 L 56.29 90.107 L 12.505 60.845 L 22.24 48.203 L 33.575 33.485 Z" style="fill: rgb(154, 160, 158);"/></g></svg>